<svg width="150" height="32" viewBox="0 0 150 32" fill="none" xmlns="http://www.w3.org/2000/svg">
<path fill-rule="evenodd" clip-rule="evenodd" d="M16.8808 0.764987C16.2993 0.700221 16.2912 0.700221 15.7584 0.675934H15.6608C15.1037 0.696173 15.0996 0.696173 14.514 0.752843C15.0915 0.781178 15.0915 0.781178 15.734 0.849992C16.1146 0.80184 16.4973 0.773466 16.8808 0.764987ZM31.2444 16.1226V16.1954C31.1952 17.1868 31.0356 18.1698 30.7686 19.1261C30.6979 18.3045 30.5495 17.4913 30.3253 16.6974C29.5771 16.7419 29.5771 16.7419 28.5197 16.7824C27.8162 17.9747 27.045 19.1262 26.2098 20.2312C25.0142 18.6687 25.0142 18.6687 23.5462 16.8998C19.8251 16.9362 19.8251 16.9362 15.6649 16.9524L13.965 18.6363C12.8345 17.507 12.8345 17.507 11.7243 16.3817C12.8304 15.2482 12.8304 15.2482 13.965 14.1189L15.49 15.6368C19.7438 15.6368 19.7438 15.6368 23.5462 15.6814C25.0183 13.9044 25.0183 13.9044 26.2139 12.3338C27.0462 13.4394 27.8173 14.5893 28.5238 15.7785L30.244 15.8473C30.507 14.9775 30.6734 14.0817 30.7401 13.1757C31.0164 14.1421 31.1855 15.1357 31.2444 16.1388V16.1226ZM15.5917 31.7757H15.4982C14.9654 31.7514 14.9532 31.7514 14.3758 31.6907C14.937 31.6664 14.937 31.6664 15.5592 31.6016C16.161 31.6704 16.161 31.6704 16.7385 31.6988C16.3578 31.7436 15.975 31.7693 15.5917 31.7757ZM0 16.3574V16.2602C0.0203335 15.7057 0.0203335 15.7016 0.0772672 15.1147C0.105734 15.6773 0.105734 15.6773 0.174868 16.329C0.125188 16.7199 0.0966796 17.1131 0.0894672 17.507C0.0244002 16.8998 0.0244002 16.8876 0 16.3574ZM1.86661 21.0326C1.42334 20.1785 1.42334 20.1785 1.05327 19.3568C0.986759 19.7116 0.939247 20.0697 0.910939 20.4295C1.25661 21.2148 1.25661 21.2148 1.65514 22.0001C1.73648 21.5508 1.73648 21.5508 1.86661 21.0326ZM1.86661 11.4878C1.76878 11.1656 1.69404 10.8369 1.64294 10.5042C1.23627 11.3137 1.23627 11.3137 0.894672 12.0869C0.924803 12.4474 0.977775 12.8057 1.05327 13.1596C1.42334 12.35 1.42334 12.35 1.86661 11.4878ZM5.99024 26.3515C5.1769 25.542 5.1769 25.542 4.42456 24.6919C4.2656 24.9098 4.11766 25.1354 3.98129 25.3679C4.67263 26.1411 4.67263 26.1411 5.4087 26.8859C5.6649 26.6389 5.6649 26.6389 5.99024 26.3394V26.3515ZM5.8601 6.31056C5.5429 5.98673 5.5429 5.98673 5.27857 5.73577C4.55063 6.48867 4.55063 6.48867 3.85929 7.278C4.05043 7.60183 4.05043 7.60183 4.30663 7.98638C5.0671 7.12823 5.0671 7.12823 5.8601 6.31056ZM4.25376 16.3452C3.66002 15.4061 3.66002 15.4061 3.12729 14.5277C2.59048 15.4506 2.59048 15.4506 2.13501 16.3412C2.59455 17.2074 2.59455 17.2074 3.13949 18.1384C3.66002 17.2722 3.66002 17.2722 4.25376 16.3452ZM18.3001 30.5937C15.0183 30.7475 15.0183 30.7475 11.7934 30.4196C11.1915 30.1242 11.1915 30.1242 10.5734 29.7963C10.0488 29.9299 10.0488 29.9299 9.60553 30.0149C10.4189 30.4196 10.4189 30.4196 11.1997 30.788C11.5413 30.7516 11.5413 30.7516 11.9276 30.6989C15.0752 31.0228 15.0752 31.0228 18.2839 30.8568C18.8898 30.954 18.8898 30.954 19.4185 31.0066C20.1481 30.7203 20.8609 30.3933 21.5535 30.027C21.0858 29.9402 20.6251 29.8198 20.1749 29.6667C19.2355 30.1687 19.2355 30.1687 18.3123 30.5937H18.3001ZM23.2127 27.0923C24.4856 25.9549 24.4856 25.9549 25.6893 24.7405C26.2912 25.4327 26.2912 25.4327 26.6978 25.9549C25.897 26.7873 25.0469 27.5712 24.1521 28.3026C23.7755 28.1198 23.409 27.9171 23.0541 27.6954C21.0215 28.2021 18.9473 28.5258 16.8564 28.6629C15.9048 29.2093 15.9048 29.2093 14.9939 29.6667C13.7739 29.0191 13.7739 29.0191 12.501 28.2176C13.6356 27.5092 13.6356 27.5092 14.8922 26.6389C15.9292 27.3757 15.9292 27.3757 16.9012 28.0152C19.0272 27.8809 21.1383 27.5708 23.2127 27.0883V27.0923ZM27.6047 21.5548C26.2645 21.896 24.907 22.1662 23.538 22.3644C22.44 21.1946 22.44 21.1946 21.1875 19.879C19.3737 21.6884 19.3737 21.6884 17.5274 23.3885C19.1541 24.7972 19.1541 24.7972 20.5978 25.9589C22.013 24.7203 22.013 24.7203 23.3835 23.3885C24.7788 23.1509 26.1575 22.825 27.5112 22.413C27.8024 22.9184 28.0552 23.4447 28.2676 23.9876C28.9889 22.93 29.6253 21.8174 30.1708 20.6602C30.0607 19.8147 29.8617 18.983 29.5771 18.1789C28.9848 19.3438 28.3164 20.4688 27.5762 21.5467L27.6047 21.5548ZM27.6047 10.1763C26.2537 9.77146 24.8794 9.44839 23.4892 9.20883C22.1228 7.86899 22.1228 7.86899 20.7076 6.6182C19.268 7.79208 19.268 7.79208 17.6332 9.21288C19.4754 10.9251 19.4754 10.9251 21.2932 12.7426C22.5457 11.419 22.5457 11.419 23.6438 10.241C25.0591 10.4468 26.4616 10.732 27.8446 11.0951C28.5268 12.1166 29.1421 13.1807 29.6869 14.2808C29.9607 13.4827 30.1475 12.6576 30.244 11.8197C29.7096 10.6692 29.0854 9.5621 28.3774 8.50855C28.1627 9.08184 27.9072 9.63916 27.6128 10.1763H27.6047ZM23.1313 4.85738C23.5003 4.61994 23.8817 4.40239 24.2741 4.20567C25.1598 4.93864 26.0004 5.72399 26.7914 6.55748C26.3847 7.07561 26.3847 7.07561 25.8316 7.77184C24.7255 6.61415 24.7255 6.61415 23.5462 5.53337C21.3929 5.01188 19.1981 4.67869 16.9866 4.5376C16.0065 5.18526 16.0065 5.18526 14.9532 5.93006C13.6885 5.04358 13.6885 5.04358 12.5498 4.31092C13.8308 3.50134 13.8308 3.50134 15.0508 2.84559C15.9536 3.31109 15.9536 3.31109 16.9215 3.87375C19.0184 4.01196 21.0983 4.33984 23.1354 4.85333L23.1313 4.85738ZM18.4059 1.61909C15.124 1.43693 15.124 1.43693 11.8991 1.76481C11.5413 1.70814 11.5413 1.70814 11.2159 1.67576C10.4229 2.03602 10.4229 2.03602 9.61366 2.45699C9.94667 2.51653 10.2754 2.59766 10.5978 2.69987C11.2607 2.34365 11.2607 2.34365 11.9032 2.02792C15.1972 1.71624 15.1972 1.71624 18.536 1.90648C19.4266 2.31127 19.4266 2.31127 20.3538 2.8213C20.7956 2.67651 21.2466 2.56156 21.7039 2.47723C21.0132 2.10928 20.3032 1.77823 19.5771 1.48551C19.1909 1.51338 18.8066 1.56339 18.4262 1.63528L18.4059 1.61909ZM9.7316 22.7773C8.69866 21.737 8.69866 21.737 7.69825 20.6724C6.94184 21.5386 6.94184 21.5386 6.27491 22.3118C7.20211 23.3197 7.20211 23.3197 8.16999 24.2952C8.91012 23.5788 8.91012 23.5788 9.72753 22.7773H9.7316ZM9.71126 9.90102L8.13339 8.36688C7.16551 9.35051 7.16551 9.35051 6.24237 10.3625C6.91338 11.1437 6.91338 11.1437 7.68198 12.01C8.67426 10.9494 8.67426 10.9494 9.71126 9.90102Z" fill="white"/>
<path fill-rule="evenodd" clip-rule="evenodd" d="M39.0889 25.5177H47.6289C51.8339 25.5177 54.6114 23.5747 54.6114 20.2919V20.2352C54.6114 17.6081 52.7692 16.2926 50.4878 15.6085C52.0006 14.9527 53.5419 13.6655 53.5419 11.1761V11.1194C53.5506 10.5522 53.4454 9.9889 53.2324 9.46269C53.0194 8.93648 52.7029 8.45794 52.3016 8.05518C51.2035 6.98654 49.4549 6.35507 47.2711 6.35507H39.0889V25.5177ZM122.663 25.5177H124.782V19.879C124.782 15.6085 127.312 13.4024 130.419 13.4024H130.585V11.1194C127.889 11.0101 125.827 12.7062 124.782 15.062V11.3663H122.663V25.5339V25.5177ZM112.269 25.8455C113.384 25.8762 114.491 25.6529 115.506 25.1927C116.521 24.7325 117.417 24.0476 118.125 23.1901L116.807 22.0163C116.249 22.6488 115.561 23.1544 114.789 23.4987C114.017 23.843 113.18 24.018 112.334 24.0119C109.805 24.0119 107.633 22.2875 107.332 19.2232H118.605C118.629 18.9961 118.639 18.7676 118.633 18.5392C118.633 14.4063 116.214 11.0668 112.005 11.0668C108.072 11.0668 105.185 14.3496 105.185 18.4299V18.4865C105.185 22.8663 108.377 25.8496 112.281 25.8496L112.269 25.8455ZM107.32 17.677C107.592 14.9123 109.463 12.86 111.94 12.86C114.786 12.86 116.254 15.1066 116.478 17.677H107.32ZM93.5663 25.8213C96.1812 25.8213 97.8567 24.3681 99.0116 22.672V25.5055H101.13V5.53336H99.0116V14.0744C97.9136 12.4876 96.2056 11.0668 93.5663 11.0668C90.1584 11.0668 86.7749 13.8031 86.7749 18.4299V18.4865C86.7749 23.1416 90.1584 25.8253 93.5663 25.8253V25.8213ZM93.9526 23.9309C91.2849 23.9309 88.9465 21.7977 88.9465 18.4541V18.4015C88.9465 14.9811 91.2035 12.9531 93.9526 12.9531C96.5919 12.9531 99.097 15.143 99.097 18.4015V18.4541C99.097 21.6924 96.5919 23.9309 93.9526 23.9309ZM76.6529 25.5177H78.7717V19.879C78.7717 15.6085 81.3011 13.4024 84.4081 13.4024H84.587V11.1194C81.8908 11.0101 79.829 12.7062 78.7839 15.062V11.3663H76.6651V25.5339L76.6529 25.5177ZM65.0669 25.8455C66.0461 25.8552 67.0175 25.6709 67.9244 25.3032C68.8313 24.9355 69.6557 24.3919 70.3494 23.704C71.0432 23.0161 71.5925 22.1976 71.9654 21.2963C72.3382 20.395 72.5271 19.4289 72.5212 18.4541V18.4015C72.4694 16.4747 71.6623 14.6445 70.2724 13.3023C68.8826 11.9601 67.0203 11.2125 65.0838 11.2194C63.1473 11.2263 61.2904 11.9871 59.9102 13.3391C58.5299 14.6911 57.736 16.527 57.6981 18.4541V18.5108C57.6866 19.4772 57.8694 20.4361 58.2356 21.3311C58.6019 22.2262 59.1443 23.0393 59.8308 23.7227C60.5174 24.406 61.3343 24.9459 62.2335 25.3104C63.1327 25.675 64.096 25.8569 65.0669 25.8455ZM65.1238 23.9592C62.1267 23.9592 59.8697 21.4941 59.8697 18.4541V18.4015C59.8697 15.4182 61.9884 12.9248 65.0669 12.9248C68.0641 12.9248 70.3536 15.4182 70.3536 18.4541V18.5108C70.3536 21.4941 68.2064 23.9592 65.1279 23.9592H65.1238ZM51.354 11.4756C51.354 13.7222 49.5362 14.8961 46.9254 14.8961H41.232V8.3021H47.0881C49.8412 8.3021 51.354 9.51646 51.354 11.423V11.4756ZM52.4236 20.1057V20.1623C52.4236 22.2956 50.6098 23.5828 47.694 23.5828H41.232V16.8148H47.3321C50.6667 16.8148 52.4236 18.017 52.4236 20.1057Z" fill="white"/>
<path fill-rule="evenodd" clip-rule="evenodd" d="M141.586 25.8456C146.645 25.8456 150 21.393 150 15.9365V15.8838C150 10.4071 146.674 6.02728 141.639 6.02728C136.605 6.02728 133.225 10.4799 133.225 15.9365V15.9931C133.225 21.4658 136.523 25.8456 141.586 25.8456ZM145.653 11.9655L136.975 18.2518C136.802 17.4921 136.716 16.7154 136.718 15.9365V15.8838C136.718 12.0788 138.613 9.06723 141.598 9.06723C143.408 9.06723 144.852 10.2168 145.665 11.9655H145.653ZM137.52 19.9115L146.247 13.6292C146.422 14.3871 146.51 15.1627 146.507 15.9405V15.9972C146.507 19.7455 144.636 22.8138 141.627 22.8138C139.817 22.8097 138.39 21.6601 137.552 19.9115H137.52Z" fill="white"/>
</svg>
